<svg version="1.1" id="Layer_1" xmlns="http://www.w3.org/2000/svg" xmlns:xlink="http://www.w3.org/1999/xlink" x="0px" y="0px"
	 width="100%" viewBox="0 0 93 87" enable-background="new 0 0 93 87" xml:space="preserve">
<path fill="#03000100" opacity="1.000000" stroke="none" 
	d="
M94.000000,85.000000 
	C94.000000,85.998535 94.000000,86.997070 94.000000,87.996704 
	C63.046894,87.997803 32.093784,87.997803 1.070338,87.997803 
	C1.070338,59.089527 1.070338,30.178848 1.070338,1.134082 
	C31.999607,1.134082 62.999714,1.134082 94.000000,1.134082 
	C94.000000,8.417391 94.000000,15.739959 93.653854,23.545437 
	C92.210060,24.322470 91.112404,24.616590 89.594666,24.903385 
	C87.778076,24.958191 86.381577,25.020323 84.545929,25.012695 
	C81.737503,24.991537 79.368225,25.040136 76.588959,25.009666 
	C74.792480,24.984911 73.405991,25.039228 71.607513,25.015182 
	C69.803322,24.988821 68.411125,25.040827 66.649139,25.016689 
	C64.519737,25.605776 62.760124,26.271002 60.663292,27.013712 
	C57.840672,28.704485 55.355270,30.317776 52.565552,31.994511 
	C51.435677,32.663174 50.610115,33.268391 49.459976,33.901489 
	C48.091259,34.674812 47.047112,35.420254 45.703743,36.235786 
	C44.241051,37.114594 43.077583,37.923317 41.581928,38.830223 
	C39.168964,40.287750 37.088184,41.647087 34.685249,43.074669 
	C32.911030,44.101734 31.458961,45.060558 29.675720,46.091454 
	C28.208523,46.906456 27.072502,47.649380 25.553942,48.132103 
	C24.985079,37.745487 24.777565,27.619398 24.622774,17.492502 
	C24.560101,13.392110 24.612434,9.289960 24.612434,4.947651 
	C21.919451,4.947651 19.961983,4.947651 17.561146,4.856543 
	C14.407735,4.823683 11.697692,4.881931 8.564370,4.841205 
	C7.121462,5.843379 5.219604,6.938390 5.211893,8.046579 
	C5.041953,32.471294 5.100644,56.897503 5.057326,81.323318 
	C5.051990,84.332222 6.368467,85.194443 9.484503,84.509674 
	C12.599013,84.534851 15.329305,84.468430 18.508787,84.515625 
	C23.707020,85.560440 24.906784,83.306892 24.718330,78.913177 
	C24.590494,75.932732 25.505569,72.907547 26.259106,69.844803 
	C27.740942,68.986465 28.917908,68.185707 30.425003,67.261948 
	C32.832485,65.709038 34.909843,64.279121 37.337078,62.850166 
	C39.115505,62.044956 40.544060,61.238781 42.269684,60.613838 
	C43.680901,61.612812 44.795044,62.430553 46.041870,63.513416 
	C47.063797,64.540810 47.953041,65.303078 49.022366,66.333832 
	C50.470043,67.734787 51.737644,68.867256 53.217690,70.252960 
	C55.948753,72.686317 58.467373,74.866432 61.115669,77.308510 
	C61.852360,78.042480 62.459373,78.514488 63.221371,79.266769 
	C64.507584,80.523033 65.638809,81.499031 66.916046,82.724136 
	C68.403458,83.453735 69.744865,83.934227 71.469162,84.506500 
	C72.889473,84.519493 73.926888,84.440697 75.349068,84.475967 
	C78.807503,84.549263 81.881172,84.508484 85.396805,84.575211 
	C88.559181,84.788475 91.279594,84.894241 94.000000,85.000000 
z"/>
<path fill="#04010100" opacity="1.000000" stroke="none" 
	d="
M90.014755,24.910709 
	C91.112404,24.616590 92.210060,24.322470 93.653854,24.014175 
	C94.000000,42.687561 94.000000,61.375122 93.675415,80.709564 
	C90.951332,79.436882 88.551842,77.517334 85.973877,75.332367 
	C82.547119,72.667641 79.298828,70.268326 75.960144,67.533890 
	C74.691025,65.823738 73.512306,64.448700 72.218414,62.801849 
	C70.732552,61.366535 69.361847,60.203037 67.856094,58.782784 
	C66.973007,57.925568 66.224968,57.325115 65.305328,56.449123 
	C64.132019,55.359913 63.130306,54.546246 61.967495,53.450073 
	C60.793415,52.071045 59.780437,50.974510 58.710239,49.816040 
	C60.580780,48.361172 61.951717,47.294884 63.638161,46.143185 
	C65.376900,45.087116 66.800133,44.116451 68.499588,42.975925 
	C70.196815,41.911350 71.617813,41.016636 73.340591,40.060314 
	C74.813278,39.206070 75.984161,38.413437 77.486450,37.489677 
	C80.287750,35.756313 82.757645,34.154076 85.562927,32.424751 
	C88.403633,30.466814 92.725662,29.648344 90.014755,24.910709 
z"/>
<path fill="#BF223D" opacity="1.000000" stroke="none" 
	d="
M86.152344,75.597778 
	C88.551842,77.517334 90.951332,79.436882 93.675415,81.178223 
	C94.000000,82.066673 94.000000,83.133339 94.000000,84.600006 
	C91.279594,84.894241 88.559181,84.788475 85.413452,84.175842 
	C85.376198,80.978584 85.764275,78.288177 86.152344,75.597778 
z"/>
<path fill="#EB0923" opacity="1.000000" stroke="none" 
	d="
M18.059597,84.402008 
	C15.329305,84.468430 12.599013,84.534851 9.495955,84.139038 
	C9.284394,81.371101 9.575321,79.065948 9.585118,76.759605 
	C9.637013,64.541725 9.703102,52.322819 9.599605,40.105663 
	C9.500295,28.382948 9.199756,16.661940 8.987648,4.940180 
	C11.697692,4.881931 14.407735,4.823683 17.562889,5.328602 
	C18.025198,32.061848 18.042397,58.231930 18.059597,84.402008 
z"/>
<path fill="#DE122A" opacity="1.000000" stroke="none" 
	d="
M18.508787,84.515625 
	C18.042397,58.231930 18.025198,32.061848 18.006256,5.419710 
	C19.961983,4.947651 21.919451,4.947651 24.612434,4.947651 
	C24.612434,9.289960 24.560101,13.392110 24.622774,17.492502 
	C24.777565,27.619398 24.985079,37.745487 25.576317,48.574509 
	C25.972231,56.152203 25.963230,63.027287 25.954231,69.902374 
	C25.505569,72.907547 24.590494,75.932732 24.718330,78.913177 
	C24.906784,83.306892 23.707020,85.560440 18.508787,84.515625 
z"/>
<path fill="#CA061C" opacity="1.000000" stroke="none" 
	d="
M8.564369,4.841205 
	C9.199756,16.661940 9.500295,28.382948 9.599605,40.105663 
	C9.703102,52.322819 9.637013,64.541725 9.585118,76.759605 
	C9.575321,79.065948 9.284394,81.371101 9.111737,84.047432 
	C6.368467,85.194443 5.051990,84.332222 5.057326,81.323318 
	C5.100644,56.897503 5.041953,32.471294 5.211893,8.046579 
	C5.219604,6.938390 7.121462,5.843379 8.564369,4.841205 
z"/>
<path fill="#AA414E" opacity="1.000000" stroke="none" 
	d="
M63.322655,46.228592 
	C61.951717,47.294884 60.580780,48.361172 58.710239,49.816040 
	C59.780437,50.974510 60.793415,52.071045 61.814800,53.857235 
	C61.544132,62.046780 61.265060,69.546669 60.985992,77.046555 
	C58.467373,74.866432 55.948753,72.686317 53.449116,69.949310 
	C53.959602,67.832207 54.853123,66.277992 54.876564,64.710777 
	C55.015732,55.404728 55.053295,46.093647 54.864780,36.789532 
	C54.831703,35.157238 53.566196,33.549919 52.869865,31.931067 
	C55.355270,30.317776 57.840672,28.704485 60.800823,27.410137 
	C61.516678,30.180769 61.730625,32.635506 62.005234,35.083435 
	C62.422264,38.800968 62.881405,42.513779 63.322655,46.228592 
z"/>
<path fill="#AF3D4B" opacity="1.000000" stroke="none" 
	d="
M52.565552,31.994511 
	C53.566196,33.549919 54.831703,35.157238 54.864780,36.789532 
	C55.053295,46.093647 55.015732,55.404728 54.876564,64.710777 
	C54.853123,66.277992 53.959602,67.832207 53.236671,69.696075 
	C51.737644,68.867256 50.470043,67.734787 49.337776,66.105652 
	C49.982277,62.098797 50.946590,58.583183 50.904903,55.079544 
	C50.820747,48.007458 50.189907,40.941875 49.784554,33.873611 
	C50.610115,33.268391 51.435677,32.663174 52.565552,31.994511 
z"/>
<path fill="#E70F31" opacity="1.000000" stroke="none" 
	d="
M85.973877,75.332367 
	C85.764275,78.288177 85.376198,80.978584 84.971481,84.068344 
	C81.881172,84.508484 78.807503,84.549263 75.354736,83.985512 
	C75.333939,78.210327 75.692238,73.039673 76.050537,67.869011 
	C79.298828,70.268326 82.547119,72.667641 85.973877,75.332367 
z"/>
<path fill="#CE2236" opacity="1.000000" stroke="none" 
	d="
M36.987202,62.849205 
	C34.909843,64.279121 32.832485,65.709038 30.393965,66.768967 
	C30.024164,59.605774 30.015530,52.812576 30.006895,46.019379 
	C31.458961,45.060558 32.911030,44.101734 34.825020,43.465157 
	C35.853699,50.141338 36.420452,56.495274 36.987202,62.849205 
z"/>
<path fill="#B73847" opacity="1.000000" stroke="none" 
	d="
M49.459980,33.901489 
	C50.189907,40.941875 50.820747,48.007458 50.904903,55.079544 
	C50.946590,58.583183 49.982277,62.098797 49.157700,65.837173 
	C47.953041,65.303078 47.063797,64.540810 46.143944,63.090469 
	C46.076550,53.656830 46.039757,44.911263 46.002968,36.165695 
	C47.047112,35.420254 48.091259,34.674812 49.459980,33.901489 
z"/>
<path fill="#C62A3D" opacity="1.000000" stroke="none" 
	d="
M37.337078,62.850166 
	C36.420452,56.495274 35.853699,50.141338 35.147179,43.396919 
	C37.088184,41.647087 39.168964,40.287750 41.596478,39.315933 
	C41.953011,46.613167 41.962811,53.522888 41.972610,60.432606 
	C40.544060,61.238781 39.115505,62.044956 37.337078,62.850166 
z"/>
<path fill="#BC3142" opacity="1.000000" stroke="none" 
	d="
M42.269684,60.613838 
	C41.962811,53.522888 41.953011,46.613167 41.928661,39.217743 
	C43.077583,37.923317 44.241051,37.114594 45.703743,36.235786 
	C46.039757,44.911263 46.076550,53.656830 46.011269,62.825348 
	C44.795044,62.430553 43.680901,61.612812 42.269684,60.613838 
z"/>
<path fill="#B93446" opacity="1.000000" stroke="none" 
	d="
M63.638161,46.143188 
	C62.881405,42.513779 62.422264,38.800968 62.005234,35.083435 
	C61.730625,32.635506 61.516678,30.180769 61.138039,27.332655 
	C62.760124,26.271002 64.519737,25.605776 66.645279,25.478529 
	C67.415253,31.726269 67.819305,37.436028 68.223358,43.145786 
	C66.800133,44.116451 65.376900,45.087116 63.638161,46.143188 
z"/>
<path fill="#BC2F43" opacity="1.000000" stroke="none" 
	d="
M65.476936,56.724663 
	C66.224968,57.325115 66.973007,57.925568 67.857925,59.248642 
	C67.586555,67.472511 67.178291,74.973770 66.770035,82.475021 
	C65.638809,81.499031 64.507584,80.523033 63.383713,78.889557 
	C63.594288,74.774139 63.691475,71.305824 64.029411,67.861115 
	C64.394714,64.137466 64.984863,60.435875 65.476936,56.724663 
z"/>
<path fill="#BF223D" opacity="1.000000" stroke="none" 
	d="
M66.916039,82.724136 
	C67.178291,74.973770 67.586555,67.472511 67.992981,59.505402 
	C69.361847,60.203037 70.732552,61.366535 72.150337,63.275749 
	C71.827042,70.819221 71.456657,77.616966 71.086273,84.414719 
	C69.744865,83.934227 68.403458,83.453735 66.916039,82.724136 
z"/>
<path fill="#BD172A" opacity="1.000000" stroke="none" 
	d="
M29.675720,46.091454 
	C30.015530,52.812576 30.024164,59.605774 30.063835,66.891953 
	C28.917908,68.185707 27.740942,68.986465 26.259104,69.844803 
	C25.963230,63.027287 25.972231,56.152203 25.958855,48.834709 
	C27.072502,47.649380 28.208523,46.906456 29.675720,46.091454 
z"/>
<path fill="#CC253D" opacity="1.000000" stroke="none" 
	d="
M68.499588,42.975925 
	C67.819305,37.436028 67.415253,31.726269 67.015060,25.554670 
	C68.411125,25.040827 69.803322,24.988821 71.604408,25.471497 
	C72.355125,30.711428 72.696968,35.416676 73.038803,40.121922 
	C71.617813,41.016636 70.196815,41.911350 68.499588,42.975925 
z"/>
<path fill="#E90D30" opacity="1.000000" stroke="none" 
	d="
M85.227539,32.551834 
	C82.757645,34.154076 80.287750,35.756313 77.451355,37.057922 
	C77.056213,32.867775 77.027580,28.978256 76.998947,25.088737 
	C79.368225,25.040136 81.737503,24.991537 84.552719,25.475618 
	C85.074944,28.189478 85.151245,30.370657 85.227539,32.551834 
z"/>
<path fill="#B23949" opacity="1.000000" stroke="none" 
	d="
M65.305328,56.449123 
	C64.984863,60.435875 64.394714,64.137466 64.029411,67.861115 
	C63.691475,71.305824 63.594288,74.774139 63.228729,78.609283 
	C62.459373,78.514488 61.852360,78.042480 61.115669,77.308510 
	C61.265060,69.546669 61.544132,62.046780 61.975899,54.139732 
	C63.130306,54.546246 64.132019,55.359913 65.305328,56.449123 
z"/>
<path fill="#DA1B37" opacity="1.000000" stroke="none" 
	d="
M71.469162,84.506500 
	C71.456657,77.616966 71.827042,70.819221 72.265503,63.547569 
	C73.512306,64.448700 74.691025,65.823738 75.960144,67.533890 
	C75.692238,73.039673 75.333939,78.210327 74.969971,83.871445 
	C73.926888,84.440697 72.889473,84.519493 71.469162,84.506500 
z"/>
<path fill="#DC1734" opacity="1.000000" stroke="none" 
	d="
M76.588959,25.009666 
	C77.027580,28.978256 77.056213,32.867775 77.119949,37.189049 
	C75.984161,38.413437 74.813278,39.206070 73.340591,40.060314 
	C72.696968,35.416676 72.355125,30.711428 72.016403,25.549864 
	C73.405991,25.039228 74.792480,24.984911 76.588959,25.009666 
z"/>
<path fill="#CD2044" opacity="1.000000" stroke="none" 
	d="
M85.562927,32.424751 
	C85.151245,30.370657 85.074944,28.189478 84.991867,25.545378 
	C86.381577,25.020323 87.778076,24.958191 89.594666,24.903385 
	C92.725662,29.648344 88.403633,30.466814 85.562927,32.424751 
z"/>
</svg>